<svg width="60" height="60" fill="none" xmlns="http://www.w3.org/2000/svg"><path d="M21.533 57.992c2.8.846 5.63 1.341 8.634 1.341A29.167 29.167 0 1 0 1 30.167c0 12.395 7.787 23.041 18.783 27.241-.262-2.275-.525-6.037 0-8.633l3.354-14.408s-.845-1.692-.845-4.375c0-4.025 2.508-7.03 5.366-7.03 2.509 0 3.675 1.838 3.675 4.2 0 2.509-1.662 6.096-2.508 9.538-.496 2.858 1.517 5.367 4.433 5.367 5.192 0 9.217-5.542 9.217-13.359 0-7-5.017-11.783-12.22-11.783-8.226 0-13.067 6.125-13.067 12.57 0 2.51.816 5.047 2.158 6.71.262.174.262.407.175.845l-.846 3.18c0 .495-.32.67-.817.32-3.733-1.633-5.891-6.942-5.891-11.23 0-9.216 6.533-17.587 19.133-17.587 10.033 0 17.85 7.204 17.85 16.771 0 10.034-6.212 18.083-15.108 18.083-2.83 0-5.6-1.516-6.592-3.295l-1.954 6.912c-.671 2.508-2.508 5.863-3.763 7.875v-.087Z" fill="url('#paint0_linear_1_2')"/><defs><linearGradient id="paint0_linear_1_2" x1="15" y1="10.5" x2="34" y2="87" gradientUnits="userSpaceOnUse"><stop stop-color="#00C2CB"/><stop offset="1" stop-color="#A6F3FF"/></linearGradient></defs></svg>