<svg width="60" height="60" viewBox="0 0 60 60" fill="none" xmlns="http://www.w3.org/2000/svg">
<path d="M21.5334 57.9917C24.3334 58.8375 27.1625 59.3333 30.1667 59.3333C37.9022 59.3333 45.3209 56.2604 50.7907 50.7906C56.2605 45.3208 59.3334 37.9021 59.3334 30.1666C59.3334 26.3364 58.579 22.5437 57.1132 19.005C55.6474 15.4664 53.499 12.2511 50.7907 9.54272C48.0823 6.83435 44.867 4.68595 41.3283 3.22018C37.7897 1.75442 33.9969 1 30.1667 1C26.3365 1 22.5438 1.75442 19.0051 3.22018C15.4664 4.68595 12.2511 6.83435 9.54272 9.54272C4.07291 15.0125 1 22.4312 1 30.1666C1 42.5625 8.7875 53.2083 19.7834 57.4083C19.5209 55.1333 19.2584 51.3708 19.7834 48.775L23.1375 34.3666C23.1375 34.3666 22.2917 32.675 22.2917 29.9916C22.2917 25.9666 24.8 22.9625 27.6584 22.9625C30.1667 22.9625 31.3334 24.8 31.3334 27.1625C31.3334 29.6708 29.6709 33.2583 28.825 36.7C28.3292 39.5583 30.3417 42.0666 33.2584 42.0666C38.45 42.0666 42.475 36.525 42.475 28.7083C42.475 21.7083 37.4584 16.925 30.2542 16.925C22.0292 16.925 17.1875 23.05 17.1875 29.4958C17.1875 32.0041 18.0042 34.5416 19.3459 36.2041C19.6084 36.3791 19.6084 36.6125 19.5209 37.05L18.675 40.2291C18.675 40.725 18.3542 40.9 17.8584 40.55C14.125 38.9166 11.9667 33.6083 11.9667 29.3208C11.9667 20.1041 18.5 11.7333 31.1 11.7333C41.1334 11.7333 48.9501 18.9375 48.9501 28.5041C48.9501 38.5375 42.7376 46.5875 33.8417 46.5875C31.0125 46.5875 28.2417 45.0708 27.25 43.2916L25.2959 50.2041C24.625 52.7125 22.7875 56.0666 21.5334 58.0791V57.9917Z" fill="url(#paint0_linear_1_2)"/>
<defs>
<linearGradient id="paint0_linear_1_2" x1="15" y1="10.5" x2="34" y2="87" gradientUnits="userSpaceOnUse">
<stop stop-color="#00C2CB"/>
<stop offset="1" stop-color="#A6F3FF"/>
</linearGradient>
</defs>
</svg>
